<svg xmlns="http://www.w3.org/2000/svg" width="48" height="48" viewBox="0 0 48 48">
    <g fill="#333" fill-rule="evenodd">
        <path d="M9.482 45.956h29.035V21.232H9.482v24.724zm5.162-34.33c0-5.354 4.21-9.735 9.356-9.735 5.145 0 9.355 4.381 9.355 9.736V19.2h-18.71v-7.573zm20.7 7.574v-7.466C35.343 5.28 30.238 0 24 0c-6.24 0-11.343 5.28-11.343 11.734V19.2H8.53c-.567 0-1.031.48-1.031 1.067v26.667C7.5 47.52 7.964 48 8.531 48H39.47c.567 0 1.031-.48 1.031-1.066V20.267c0-.587-.464-1.067-1.031-1.067h-4.126z"/>
        <path d="M23 33.812V38h2v-4.188c1.15-.401 2-1.503 2-2.806A3.012 3.012 0 0 0 24 28c-1.65 0-3 1.353-3 3.006 0 1.303.85 2.405 2 2.806"/>
    </g>
</svg>
